<mxfile host="app.diagrams.net" agent="Mozilla/5.0 (Windows NT 10.0; Win64; x64) AppleWebKit/537.36 (KHTML, like Gecko) Chrome/131.0.0.0 Safari/537.36" version="25.0.3">
  <diagram name="Trang-1" id="OfOp79_Re9BOXlwoCn7M">
    <mxGraphModel dx="794" dy="446" grid="1" gridSize="10" guides="1" tooltips="1" connect="1" arrows="1" fold="1" page="1" pageScale="1" pageWidth="827" pageHeight="1169" math="0" shadow="0">
      <root>
        <mxCell id="0" />
        <mxCell id="1" parent="0" />
        <mxCell id="QU0pjFYPx1oWOU5bBSIf-1" value="Bắt Đầu" style="ellipse;whiteSpace=wrap;html=1;" vertex="1" parent="1">
          <mxGeometry x="360" y="40" width="120" height="80" as="geometry" />
        </mxCell>
        <mxCell id="QU0pjFYPx1oWOU5bBSIf-5" value="" style="edgeStyle=orthogonalEdgeStyle;rounded=0;orthogonalLoop=1;jettySize=auto;html=1;" edge="1" parent="1" source="QU0pjFYPx1oWOU5bBSIf-2" target="QU0pjFYPx1oWOU5bBSIf-4">
          <mxGeometry relative="1" as="geometry" />
        </mxCell>
        <mxCell id="QU0pjFYPx1oWOU5bBSIf-2" value="Nhập n" style="shape=parallelogram;perimeter=parallelogramPerimeter;whiteSpace=wrap;html=1;fixedSize=1;" vertex="1" parent="1">
          <mxGeometry x="360" y="180" width="120" height="60" as="geometry" />
        </mxCell>
        <mxCell id="QU0pjFYPx1oWOU5bBSIf-21" value="" style="edgeStyle=orthogonalEdgeStyle;rounded=0;orthogonalLoop=1;jettySize=auto;html=1;" edge="1" parent="1" source="QU0pjFYPx1oWOU5bBSIf-4" target="QU0pjFYPx1oWOU5bBSIf-20">
          <mxGeometry relative="1" as="geometry" />
        </mxCell>
        <mxCell id="QU0pjFYPx1oWOU5bBSIf-23" value="" style="edgeStyle=orthogonalEdgeStyle;rounded=0;orthogonalLoop=1;jettySize=auto;html=1;" edge="1" parent="1" source="QU0pjFYPx1oWOU5bBSIf-4" target="QU0pjFYPx1oWOU5bBSIf-22">
          <mxGeometry relative="1" as="geometry" />
        </mxCell>
        <mxCell id="QU0pjFYPx1oWOU5bBSIf-4" value="n%2==0" style="rhombus;whiteSpace=wrap;html=1;" vertex="1" parent="1">
          <mxGeometry x="355" y="310" width="130" height="50" as="geometry" />
        </mxCell>
        <mxCell id="QU0pjFYPx1oWOU5bBSIf-17" value="" style="edgeStyle=orthogonalEdgeStyle;rounded=0;orthogonalLoop=1;jettySize=auto;html=1;" edge="1" parent="1" target="QU0pjFYPx1oWOU5bBSIf-16">
          <mxGeometry relative="1" as="geometry">
            <mxPoint x="130" y="365" as="sourcePoint" />
          </mxGeometry>
        </mxCell>
        <mxCell id="QU0pjFYPx1oWOU5bBSIf-19" value="" style="edgeStyle=orthogonalEdgeStyle;rounded=0;orthogonalLoop=1;jettySize=auto;html=1;" edge="1" parent="1" target="QU0pjFYPx1oWOU5bBSIf-18">
          <mxGeometry relative="1" as="geometry">
            <mxPoint x="730" y="365" as="sourcePoint" />
          </mxGeometry>
        </mxCell>
        <mxCell id="QU0pjFYPx1oWOU5bBSIf-10" value="Kết Thúc&amp;nbsp;" style="ellipse;whiteSpace=wrap;html=1;" vertex="1" parent="1">
          <mxGeometry x="370" y="560" width="120" height="80" as="geometry" />
        </mxCell>
        <mxCell id="QU0pjFYPx1oWOU5bBSIf-12" value="" style="endArrow=classic;html=1;rounded=0;entryX=0;entryY=0.375;entryDx=0;entryDy=0;entryPerimeter=0;exitX=0.889;exitY=1.006;exitDx=0;exitDy=0;exitPerimeter=0;" edge="1" parent="1" source="QU0pjFYPx1oWOU5bBSIf-16" target="QU0pjFYPx1oWOU5bBSIf-10">
          <mxGeometry width="50" height="50" relative="1" as="geometry">
            <mxPoint x="220" y="480" as="sourcePoint" />
            <mxPoint x="270" y="430" as="targetPoint" />
          </mxGeometry>
        </mxCell>
        <mxCell id="QU0pjFYPx1oWOU5bBSIf-13" value="" style="endArrow=classic;html=1;rounded=0;entryX=1;entryY=0.325;entryDx=0;entryDy=0;entryPerimeter=0;" edge="1" parent="1" source="QU0pjFYPx1oWOU5bBSIf-18" target="QU0pjFYPx1oWOU5bBSIf-10">
          <mxGeometry width="50" height="50" relative="1" as="geometry">
            <mxPoint x="660" y="540" as="sourcePoint" />
            <mxPoint x="710" y="490" as="targetPoint" />
          </mxGeometry>
        </mxCell>
        <mxCell id="QU0pjFYPx1oWOU5bBSIf-14" value="" style="endArrow=classic;html=1;rounded=0;" edge="1" parent="1" target="QU0pjFYPx1oWOU5bBSIf-2">
          <mxGeometry width="50" height="50" relative="1" as="geometry">
            <mxPoint x="420" y="120" as="sourcePoint" />
            <mxPoint x="470" y="70" as="targetPoint" />
          </mxGeometry>
        </mxCell>
        <mxCell id="QU0pjFYPx1oWOU5bBSIf-16" value="Số Chắn" style="whiteSpace=wrap;html=1;" vertex="1" parent="1">
          <mxGeometry x="70" y="445" width="120" height="60" as="geometry" />
        </mxCell>
        <mxCell id="QU0pjFYPx1oWOU5bBSIf-18" value="Số Lẻ&amp;nbsp;" style="whiteSpace=wrap;html=1;" vertex="1" parent="1">
          <mxGeometry x="670" y="445" width="120" height="60" as="geometry" />
        </mxCell>
        <mxCell id="QU0pjFYPx1oWOU5bBSIf-20" value="Không" style="whiteSpace=wrap;html=1;" vertex="1" parent="1">
          <mxGeometry x="660" y="305" width="120" height="60" as="geometry" />
        </mxCell>
        <mxCell id="QU0pjFYPx1oWOU5bBSIf-22" value="có" style="whiteSpace=wrap;html=1;" vertex="1" parent="1">
          <mxGeometry x="80" y="305" width="120" height="60" as="geometry" />
        </mxCell>
      </root>
    </mxGraphModel>
  </diagram>
</mxfile>
